<?xml version="1.0" encoding="utf-8" ?><svg xmlns="http://www.w3.org/2000/svg" xmlns:xlink="http://www.w3.org/1999/xlink" width="1120" height="390" viewBox="0 0 1120 390"><path fill="#0E0E0E" d="M0 0L1120 0L1120 390L0 390L0 0Z"/><path fill="#E6E5E5" d="M65.9879 72.4508L197.358 72.4778L235.314 72.443C243.242 72.44 251.469 71.9767 259.334 73.0579C265.493 73.9046 270.329 75.5091 274.826 79.9546C279.156 84.2346 281.736 90.0319 281.72 96.1447C281.715 102.139 279.308 107.881 275.038 112.086C267.839 119.198 258.697 118.704 249.319 118.637L249.3 304.394C254.521 304.893 260.733 306.976 264.496 310.766C270.918 317.235 268.569 336.539 268.524 345.747C274.408 345.746 279.272 346.19 283.67 350.561C286.548 353.422 287.922 357.132 287.897 361.163C287.876 364.539 286.78 367.755 284.302 370.128C278.433 375.746 264.052 373.698 256.567 373.633L113.855 373.538L68.4364 373.584C60.2307 373.59 51.6645 374.095 43.513 373.276C41.5561 373.08 40.0415 372.358 38.5989 371.025C35.6771 368.324 34.4875 364.164 34.3736 360.292C34.2534 356.207 35.4183 352.268 38.3216 349.3C41.9894 345.551 47.0046 345.834 51.8161 345.728C52.0255 336.792 49.4513 318.576 54.9169 311.567C58.9566 306.387 65.2321 305.682 71.2931 304.995C70.2571 274.653 71.0959 243.999 71.0984 213.629C71.1011 181.927 70.295 149.974 71.5933 118.305C62.4889 118.433 53.4186 119.285 46.0845 112.812C41.7317 108.97 39.4003 103.551 39.0751 97.7992C38.7239 91.5881 40.5008 85.6131 44.6869 80.941C50.3335 74.6387 57.8764 72.9392 65.9879 72.4508Z"/><path fill="#0E0E0E" d="M81.0218 118.621L239.886 118.608L239.947 304.336C232.644 304.241 225.331 304.291 218.028 304.27L217.965 204.53L218.062 175.871C218.088 169.2 218.412 162.304 217.531 155.681C216.996 151.653 215.693 147.601 212.792 144.637C210.544 142.338 207.45 141.063 204.235 141.112C201.259 141.136 198.562 142.434 196.488 144.532C193.595 147.46 191.987 151.522 191.377 155.534C189.203 169.849 190.475 191.329 190.477 206.464L190.506 304.457L173.776 304.538L174.44 205.803L174.47 176.798C174.469 169.229 174.884 161.216 173.466 153.756C172.865 150.593 171.757 147.144 169.553 144.714C167.631 142.597 163.905 141.244 161.104 141.114C158.04 140.964 155.051 142.09 152.848 144.224C149.6 147.336 148.506 151.974 147.871 156.267C145.397 172.993 146.691 191.254 146.729 208.151C146.802 240.269 147.195 272.426 146.779 304.541L130.286 304.586C130.66 272.469 130.377 240.313 130.369 208.193L130.341 176.614C130.329 169.984 130.628 163.154 129.84 156.56C129.324 152.239 128.45 148.125 125.351 144.879C123.201 142.626 120.292 141.078 117.128 141.06C114.129 141.044 110.941 142.598 108.836 144.694C105.756 147.761 104.547 151.961 103.973 156.155C101.977 170.725 103.227 190.922 103.223 206.132L103.252 304.576C95.842 304.608 88.4332 304.757 81.0282 305.025C80.3795 242.92 80.9433 180.735 81.0218 118.621Z"/><path fill="#0E0E0E" d="M66.7028 315.73C78.6912 315.227 90.7828 315.555 102.788 315.547L167.593 315.517L218.605 315.503C228.642 315.454 238.898 314.958 248.915 315.464C251.46 315.593 254.858 315.953 257.034 317.398C257.431 317.661 258.28 318.352 258.365 318.828C258.923 321.958 259.195 343.591 257.896 345.312C257.363 346.018 255.844 345.873 254.98 345.951L61.5666 345.909C61.7884 338.482 59.9518 326.494 62.2085 319.769C62.9853 317.453 64.6706 316.756 66.7028 315.73Z"/><path fill="#0E0E0E" d="M60.3764 82.6597C71.1643 81.9371 82.2425 82.4028 93.0578 82.3976L153.024 82.4219L219.874 82.4205C231.73 82.4167 243.802 81.9753 255.635 82.5634C258.847 82.723 261.787 82.9022 264.637 84.5392C267.857 86.4003 270.195 89.4755 271.129 93.0759C271.952 96.2799 271.602 99.9122 269.863 102.768C267.735 106.264 264.544 107.781 260.766 108.765C250.469 109.296 239.995 108.934 229.68 108.935L173.564 108.955L103.077 108.967C90.8288 108.966 78.476 109.294 66.2383 108.898C63.1074 108.797 58.7527 108.825 55.8659 107.52C52.9718 106.212 50.7953 103.401 49.7343 100.458C48.5001 97.0343 48.8191 93.8551 50.3803 90.5944C52.5932 85.9726 55.7632 84.2974 60.3764 82.6597Z"/><path fill="#0E0E0E" d="M47.5185 355.776C104.336 354.68 161.346 355.648 218.184 355.68L258.979 355.66C263.469 355.655 270.028 354.747 274.245 355.802C275.494 356.115 276.778 357.167 277.359 358.306C277.87 359.306 278.077 360.627 277.666 361.7C277.127 363.104 276.532 363.461 275.215 363.97C254.541 363.944 48.9528 364.637 46.7042 363.67C45.6447 363.214 44.7847 362.306 44.4193 361.211C44.0518 360.109 44.1742 358.665 44.7266 357.641C45.4778 356.248 46.0902 356.216 47.5185 355.776Z"/><path fill="#0E0E0E" d="M159.741 150.068C160.331 150.119 160.962 150.216 161.474 150.534C162.795 151.356 163.551 153.449 163.886 154.886C165.435 161.515 164.652 169.399 164.649 176.219L164.647 207.554L164.606 272.873C164.592 282.779 164.96 292.82 164.627 302.707C164.607 303.288 164.464 303.668 164.133 304.154C163.931 304.449 162.942 304.474 162.558 304.528C160.914 304.567 157.932 304.995 156.635 303.916C155.838 296.628 156.395 288.782 156.404 281.437L156.406 239.003L156.378 187.831C156.375 178.675 155.828 169.085 156.634 159.975C156.955 156.355 158.034 153.253 159.741 150.068Z"/><path fill="#0E0E0E" d="M116.544 149.708C116.638 149.77 116.735 149.829 116.826 149.895C118.855 151.356 119.928 155.123 120.316 157.504C121.364 163.94 120.892 170.861 120.873 177.38L120.821 208.186L120.855 277.131C120.843 284.497 121.254 291.971 121.081 299.313C121.043 300.925 121.107 303.015 120.137 304.366L118.26 304.644C116.636 304.676 115.132 304.7 113.536 304.33L112.845 303.159C112.373 293.937 112.729 284.565 112.736 275.326L112.735 224.756L112.722 184.535C112.723 177.076 112.33 169.355 112.998 161.928C113.41 157.34 114.059 153.621 116.544 149.708Z"/><path fill="#0E0E0E" d="M203.117 149.973C203.285 150.031 203.454 150.087 203.62 150.15C205.248 150.768 206.222 151.845 206.905 153.441C208.114 156.264 208.136 160.088 208.234 163.119C208.669 176.571 208.864 301.432 207.798 304.16L206.744 304.551L200.16 304.417L200.155 207.813C200.153 193.097 199.126 175.476 200.448 161.139C200.817 157.129 201.696 153.737 203.117 149.973Z"/><path fill="#E6E5E5" d="M55.1508 21.551C56.6087 21.4308 58.0694 21.3482 59.5315 21.3032C103.609 20.3709 147.873 21.1599 191.966 21.1203L234.071 21.0921C245.943 21.0888 258.481 20.4786 270.182 22.7269C275.46 23.7411 281.171 27.584 284.969 31.2727C290.691 36.8307 295.059 44.9819 295.137 53.1019C295.161 55.6545 294.579 58.3458 292.699 60.1956C288.109 64.7133 268.156 62.7395 261.543 62.6668C204.932 62.0189 148.235 62.6123 91.6176 62.5892C72.7176 62.5815 53.6914 63.2511 34.8126 62.7766C32.6775 62.7229 27.0127 62.8608 25.3657 61.5907C23.9013 60.4614 23.4309 58.6175 23.2384 56.8499C22.3952 49.1084 24.8708 39.711 29.7652 33.6244C36.1342 25.7039 45.4047 22.6368 55.1508 21.551Z"/><path fill="#0E0E0E" d="M55.9175 30.8019C67.3378 30.2473 78.9338 30.649 90.3715 30.6563L151.017 30.627L220.707 30.5583C231.43 30.5497 259.371 29.038 268.593 32.0493C275.368 34.2618 280.828 39.4322 283.972 45.7549C284.949 47.7201 285.304 49.0178 284.594 51.1162C281.415 54.0327 267.59 52.541 262.789 52.511L112.306 52.4953L64.2625 52.5185C53.8389 52.5255 43.3395 52.2684 32.9361 52.9357C33.1884 48.1005 33.9462 44.229 36.9099 40.2698C41.5219 34.1087 48.6057 31.8201 55.9175 30.8019Z"/><path fill="#E6E5E5" d="M944.187 130.806L945.121 131.201C946.659 136.182 945.145 159.053 945.026 165.862C944.692 184.962 943.854 207.199 945.224 226.011C946.293 225.78 947.371 225.534 948.452 225.37C949.802 225.165 950.343 225.468 951.387 226.221C951.523 226.865 951.773 227.387 951.502 228.007C950.362 230.611 946.896 232.38 944.347 233.342C940.623 234.748 936.317 235.579 932.572 233.786C929.511 232.321 928.643 229.31 927.601 226.351C922.86 229.807 917.701 233.169 911.915 234.507C904.666 236.183 898.573 234.274 892.43 230.413C887.908 226.771 884.715 222.349 882.596 216.925C878.355 206.065 879.406 192.366 884.116 181.819C887.51 174.219 893.551 168.243 901.373 165.294C910.468 161.865 918.898 163.126 927.518 167.029C927.439 160.543 927.933 154.011 928.249 147.532C925.273 144.592 922.537 141.64 920.171 138.179C927.943 135.223 936.114 132.792 944.187 130.806Z"/><path fill="#0E0E0E" d="M910.821 171.815C911.91 171.719 913.013 171.63 914.108 171.647C917.66 171.699 921.404 173.235 923.879 175.78C925.597 177.525 926.79 179.718 927.323 182.108C928.968 189.347 927.645 208.995 927.541 217.471C922.902 220.552 919.099 222.75 913.603 223.871C911.66 223.655 909.504 223.319 907.714 222.514C903.117 220.448 899.905 216.133 898.221 211.495C895.134 202.994 895.647 189.666 899.505 181.487C901.969 176.263 905.492 173.699 910.821 171.815Z"/><path fill="#E6E5E5" d="M338.982 137.394C339.871 137.198 340.373 137.218 341.233 137.538C343.123 138.24 370.351 217.813 374.606 227.554C376.924 228.573 378.279 229.201 379.579 231.441C379.514 232.91 379.316 233.118 378.326 234.203C372.411 234.958 353.912 235.561 348.62 234.226C347.039 233.828 346.329 233.47 345.522 232.072C345.606 231.781 345.605 231.764 345.727 231.448C346.728 228.853 350.729 227.8 353.092 226.851C350.697 218.309 347.512 209.854 344.839 201.379L328.945 201.389L313.385 201.301C310.88 208.665 306.609 217.555 305.924 225.235C305.6 228.866 311.254 229.037 313.377 231.597C313.613 233.014 313.395 233.161 312.663 234.322C308.547 235.231 296.31 235.176 292.09 234.399C290.41 234.09 289.479 233.758 288.528 232.353C288.588 232.015 288.662 231.694 288.796 231.376C289.716 229.195 293.17 228.267 295.196 227.459C298.635 221.719 300.707 214.177 303.102 207.867C309.578 190.801 315.927 173.453 321.755 156.158C322.991 152.491 323.981 144.553 325.321 141.991C326.466 139.801 336.521 138.027 338.982 137.394Z"/><path fill="#0E0E0E" d="M329.349 156.256C332.95 160.574 340.011 185.91 341.96 192.801C338.033 193.136 333.984 192.977 330.039 193.009L316.753 192.961C320.497 180.758 324.456 168.042 329.349 156.256Z"/><path fill="#E6E5E5" d="M407.976 174.564C414.76 168.593 420.446 163.648 430.035 163.516C435.516 163.441 440.618 165.547 444.531 169.369C447.137 171.913 449.163 175.168 450.069 178.711C452.053 186.472 450.673 217.11 450.779 227.203C452.657 228.229 455.293 228.911 456.86 230.374C457.815 231.267 458.104 231.815 458.093 233.097C457.914 233.288 457.732 233.466 457.517 233.618C454.811 235.528 431.904 234.913 428.202 234.202C427.386 233.213 427.098 232.606 426.969 231.327C428.284 229.191 430.535 228.989 432.209 227.223C435.002 224.276 433.578 192.628 433.542 186.542C433.45 185.912 433.316 185.265 433.169 184.645C432.207 180.589 427.767 177.98 424.508 175.918C418.278 177.223 413.329 179.82 407.83 182.869C407.447 197.647 407.612 212.672 408.004 227.453C409.318 228.095 410.913 228.744 412.056 229.651C413.017 230.415 413.516 231.219 413.687 232.433C413.328 233.037 413.234 233.387 412.574 233.692C409.075 235.308 387.658 235.299 384.053 233.934L383.729 232.771C384.207 230.57 387.926 228.58 389.555 227.016C391.738 224.92 390.546 184.499 390.532 178.591C388.819 177.387 386.459 175.975 385.489 174.06C384.834 172.767 385.043 172.059 385.421 170.746C389.019 166.592 400.741 165.011 406.028 163.594C406.886 163.584 406.99 163.752 407.671 164.232C408.443 167.507 408.048 171.212 407.976 174.564Z"/><path fill="#E6E5E5" d="M828.028 174.706C831.16 171.541 834.414 168.682 838.354 166.565C843.722 163.681 849.854 162.426 855.769 164.269C871.237 169.089 870.892 182.256 870.791 195.655L870.618 216.703C870.597 219.501 870.11 223.542 870.785 226.191C871.572 229.28 876.915 229.308 878.369 232.111C878.281 233.157 878.343 233.474 877.614 234.283C872.878 235.175 853.361 235.081 848.651 234.208C847.657 233.485 847.622 233.246 847.273 232.122C847.92 229.729 851.503 228.019 852.992 225.892C854.458 223.8 853.895 187.845 853.059 183.009C850.978 180.704 848.644 177.795 845.56 176.898C839.652 175.18 832.95 180.068 828.01 182.774C827.902 197.602 827.402 212.718 828.192 227.517C830.581 228.685 833.179 229.647 834.229 232.285C834.064 232.761 834.006 233.347 833.561 233.603C830.348 235.452 808.463 235.103 804.335 234.036L803.947 233.192C804.907 230.158 808.457 228.188 810.09 225.366L810.24 225.102C810.663 224.371 810.951 223.713 811.003 222.857C811.244 218.869 810.818 214.586 810.798 210.562C810.679 199.968 810.72 189.372 810.923 178.779C808.732 177.215 806.149 175.45 804.69 173.128C804.001 172.03 803.831 171.59 804.103 170.333C810.316 167.132 819.296 165.172 826.142 163.624C826.912 163.65 827.048 163.852 827.652 164.303C828.449 167.578 828.073 171.343 828.028 174.706Z"/><path fill="#E6E5E5" d="M567.268 163.682C572.528 162.984 578.721 163.749 583.488 166.167C595.585 172.302 594.895 185.009 594.838 196.646L594.799 215.179C594.804 217.667 594.338 221.789 595.203 224.054C596.274 226.861 600.085 224.293 602.135 225.346C602.562 226.249 602.389 226.982 602.115 227.903C601.502 229.97 600.101 231.14 598.244 232.149C593.958 234.479 587.601 235.635 582.869 234.177C579.826 233.239 578.855 231.034 577.508 228.406C573.418 230.499 569.221 232.741 564.802 234.034C559.079 235.708 553.752 235.417 548.487 232.554C544.834 230.065 541.932 226.878 540.823 222.49C539.689 218.004 540.244 212.864 542.653 208.879C549.074 198.257 566.499 195.938 577.676 193.184C577.816 189.356 578.246 185.791 575.913 182.476C574.199 180.04 571.732 178.699 568.821 178.229C561.568 177.059 555.953 180.482 550.346 184.529L545.504 181.988C546.615 179.145 547.727 176.346 549.477 173.825C553.942 167.392 559.799 165.058 567.268 163.682Z"/><path fill="#0E0E0E" d="M573.313 200.782C574.89 200.765 575.81 200.441 577.033 201.542C579.049 207.241 577.815 214.585 577.467 220.571C577.403 220.622 577.339 220.673 577.274 220.722C572.708 224.203 568.268 225.89 562.532 225.097C562.407 225.031 562.282 224.963 562.158 224.895C559.364 223.348 556.978 220.916 556.126 217.763C555.477 215.356 556.123 212.837 557.338 210.72C560.725 204.824 567.098 202.449 573.313 200.782Z"/><path fill="#E6E5E5" d="M1069.74 163.685C1075.13 163.392 1080.19 163.271 1085.28 165.389C1098.31 170.823 1097.89 183.253 1097.81 195.22L1097.66 214.084C1097.64 216.512 1097.11 220.722 1098.08 222.905C1099.56 226.234 1102.45 224.308 1105.02 225.389C1105.43 226.725 1105.39 227.416 1104.88 228.753C1104.22 230.485 1102.03 231.723 1100.42 232.475C1096.08 234.503 1090.06 235.838 1085.42 234.036C1082.63 232.951 1081.92 230.742 1080.85 228.183C1076.98 230.41 1073.05 232.615 1068.76 233.931C1062.73 235.779 1057.05 235.463 1051.47 232.508C1047.9 229.863 1045.2 226.886 1044.07 222.475C1042.95 218.141 1043.63 213.233 1045.92 209.383C1052.23 198.727 1069.42 195.982 1080.56 193.107C1080.66 189.222 1081.14 185.768 1078.71 182.423C1076.9 179.929 1074.27 178.602 1071.26 178.156C1064.18 177.103 1058.89 180.664 1053.48 184.63L1048.9 181.897C1049.86 179.422 1050.89 177.037 1052.32 174.792C1056.58 168.119 1062.22 165.338 1069.74 163.685Z"/><path fill="#0E0E0E" d="M1076.88 200.832C1078.06 200.647 1078.94 200.702 1080.1 200.947C1081.61 203.947 1080.61 216.653 1080.61 220.486C1079.2 221.491 1077.77 222.472 1076.24 223.309C1072.39 225.425 1069.22 225.832 1065 224.596C1062.36 222.911 1060.28 220.448 1059.57 217.351C1058.98 214.808 1059.67 212.299 1061.03 210.124C1064.54 204.539 1070.77 202.214 1076.88 200.832Z"/><path fill="#E6E5E5" d="M764.788 163.652C768.101 163.381 771.577 163.396 774.84 164.07C792.08 167.637 792.484 181.134 792.369 195.635L792.205 215.403C792.183 218.249 791.602 222.169 793.215 224.606C795.095 225.635 796.76 225.291 798.874 225.217L799.494 226.065C799.433 226.792 799.361 227.546 799.167 228.251C798.698 229.957 796.901 231.304 795.435 232.128C791.222 234.496 785.061 235.611 780.377 234.179C777.392 233.266 776.486 231.307 775.076 228.751C770.912 230.977 766.275 233.104 761.693 234.269C755.442 235.859 750.493 235.047 745.011 231.752C742.11 229.483 739.881 226.864 738.973 223.226C737.787 218.472 738.392 212.64 740.959 208.425C747.227 198.128 764.422 195.688 775.34 193.056L775.368 184.76C775.216 184.53 775.063 184.304 774.898 184.084C772.481 180.859 768.995 178.612 764.969 178.058C758.06 177.108 752.89 180.808 747.668 184.719C746.292 183.63 744.721 182.773 743.218 181.872C744.243 179.154 745.29 176.54 746.93 174.126C751.349 167.623 757.28 165.072 764.788 163.652Z"/><path fill="#0E0E0E" d="M771.033 200.865C772.518 200.761 773.297 200.55 774.656 201.199C775.773 207.359 775.532 214.385 775.349 220.656C774.73 221.124 774.094 221.57 773.443 221.993C769.006 224.87 765.218 225.993 759.969 224.865C759.855 224.797 759.741 224.728 759.627 224.658C756.926 222.979 754.646 220.378 753.949 217.208C753.369 214.57 754.238 211.891 755.674 209.678C759.272 204.135 764.899 202.19 771.033 200.865Z"/><path fill="#E6E5E5" d="M666.565 163.668C666.967 163.633 667.368 163.599 667.77 163.567C676.286 162.894 684.834 163.913 691.531 169.678C699.868 176.854 701.449 187.45 702.245 197.806C687.094 197.57 671.941 197.467 656.788 197.496C656.696 202.199 656.97 206.895 658.793 211.291C660.767 216.166 664.618 220.043 669.479 222.05C677.266 225.268 685.921 223.188 693.354 220.051C695.209 218.96 697.49 217.235 699.733 217.838C700.615 218.075 700.641 218.442 701.067 219.212C700.948 220.276 700.737 221.193 700.195 222.13C696.767 228.059 688.176 231.964 681.884 233.733C673.62 236.056 664.607 235.585 657.067 231.296C649.453 226.965 644.964 219.546 642.728 211.248C639.84 200.533 641.099 188.321 646.713 178.678C651.261 170.867 657.903 165.991 666.565 163.668Z"/><path fill="#0E0E0E" d="M665.412 171.314C666.487 171.161 667.57 171.074 668.656 171.053C672.598 170.944 676.515 172.137 679.409 174.903C683.678 178.985 684.201 184.098 684.336 189.692L676.621 189.752C670.054 189.779 663.488 189.728 656.922 189.6C657.333 186.689 657.657 183.666 658.404 180.824C659.542 176.489 661.528 173.605 665.412 171.314Z"/><path fill="#E6E5E5" d="M627.841 131.356C628.909 131.14 629.617 131.024 630.692 131.38C631.415 132.963 630.563 217.387 630.612 227.405C632.939 228.371 636.459 229.364 637.72 231.723C638.102 232.438 637.927 232.62 637.689 233.363C633.802 236.061 614.694 234.601 609.082 234.574C607.898 234.587 607.339 234.482 606.324 233.806L606.155 232.654C607.214 230.458 609.493 229.724 611.234 228.19C612.738 226.865 613.246 222.605 613.409 220.678C614.01 213.573 613.481 206.014 613.476 198.864C613.466 181.729 613.197 164.547 613.774 147.423C610.261 144.538 607.395 141.905 605.121 137.929L627.841 131.356Z"/><path fill="#E6E5E5" d="M980.775 178.079C983.128 173.684 985.438 169.26 989.484 166.166C991.922 164.301 995.036 163.117 998.135 163.615C1000.47 163.99 1002.41 165.358 1003.73 167.298C1007.57 172.946 1006.14 180.794 1004.88 186.997C1000.41 185.371 995.98 181.47 990.969 182.241C986.406 182.943 982.491 189.51 979.838 192.966C979.051 203.823 979.231 215.587 980.178 226.401C982.832 228.7 987.268 228.418 989.362 231.101C989.633 232.469 989.771 232.788 989.254 234.128C984.865 235.441 967.78 235.038 962.621 234.643C960.482 234.479 958.525 234.228 957.076 232.547L957.394 231.1C958.644 229.357 960.559 228.679 962.45 227.829C963.569 212.514 962.795 196.694 963.019 181.305C961.031 179.422 957.879 176.925 957.114 174.245C956.776 173.059 956.779 171.745 957.381 170.662C959.259 167.288 974.34 164.75 978.253 163.647L979.443 163.792C981.012 166.213 980.568 174.858 980.775 178.079Z"/><path fill="#E6E5E5" d="M727.931 163.63L728.919 163.872C729.77 165.408 729.562 167.683 729.577 169.424C729.662 179.708 728.856 190.031 728.839 200.337C728.819 212.468 729.701 225.157 728.712 237.209C728.141 244.173 725.327 250.637 719.931 255.202C712.41 261.566 703.289 261.93 693.963 261.177L692.948 255.02C692.7 253.111 692.415 251.536 693.622 249.948C695.517 249.262 698.382 250.411 700.367 250.829C703.301 251.446 707.068 251.754 709.68 250.044C710.95 248.549 711.118 246.292 711.301 244.403C711.87 238.534 711.568 232.433 711.566 226.535C711.561 210.732 710.817 194.568 712.012 178.817C710.086 177.265 706.75 175.208 705.807 172.882C705.355 171.765 705.414 171.165 705.879 170.091C712.557 167.085 720.813 165.418 727.931 163.63Z"/><path fill="#E6E5E5" d="M480.209 149.224C481.007 149.222 481.722 149.466 482.481 149.686C484.721 152.574 483.352 160.034 483.113 163.575C489.602 163.806 496.1 163.634 502.596 163.898L500.962 174.625C496.748 173.698 487.339 170.924 483.666 173.118C481.799 177.694 482.526 215.352 483.688 220.985C483.894 221.981 484.005 223.149 484.906 223.711C492.392 228.384 497.097 220.465 503.47 218.934L504.408 219.636C504.812 222.586 504.615 223.683 502.864 226.032C496.883 231.969 490.204 235.161 481.722 235.177C477.514 235.185 473.616 233.997 470.612 230.947C468.334 228.635 466.987 225.664 466.3 222.523C464.909 216.166 465.546 208.703 465.567 202.206L465.701 172.27L457.323 172.32C462.01 162.952 472.199 155.602 480.209 149.224Z"/><path fill="#E6E5E5" d="M1033.26 163.618L1034.2 164.049C1034.61 165.101 1033.92 220.424 1034.1 227.821C1035.35 228.364 1036.75 228.899 1037.87 229.671C1038.9 230.381 1039.47 231.189 1039.73 232.407L1039 233.503C1033.57 236.003 1017 234.636 1010.24 234.562L1009.76 233.94C1010.25 230.524 1014.37 228.822 1016.26 225.903L1016.45 225.607C1016.89 224.928 1017.15 224.384 1017.21 223.563C1017.53 219.109 1017 214.23 1016.98 209.715C1016.96 199.418 1016.99 189.121 1017.07 178.824C1015.63 177.634 1014.13 176.426 1012.8 175.103C1011.59 173.891 1010.79 172.594 1010.79 170.851C1012.87 168.368 1029.4 164.58 1033.26 163.618Z"/><path fill="#E6E5E5" d="M529.649 163.548L530.689 163.75C530.842 163.955 531.265 164.39 531.331 164.61C532.417 168.256 531.077 184.304 531.022 188.908C530.873 201.892 530.893 214.878 531.08 227.861C531.544 228.028 532.006 228.2 532.466 228.377C534.717 229.243 536.117 229.938 537.136 232.236L536.686 233.249C532.036 236.047 515.629 234.626 509.551 234.604C508.358 234.536 508.086 234.569 507.126 233.776L507.095 232.54C508.274 230.163 510.468 229.46 512.215 227.665C513.422 226.423 513.626 225.024 513.842 223.368C514.502 218.304 514.068 212.9 514.059 207.786L514.031 178.897C512.473 177.602 510.314 176.082 509.382 174.25C508.66 172.831 508.933 171.871 509.439 170.481C512.553 167.161 524.909 165.029 529.649 163.548Z"/><path fill="#E6E5E5" d="M1021.44 133.097C1023.46 132.811 1025.61 132.438 1027.63 132.819C1030.06 133.277 1032.19 135.15 1033.48 137.193C1035.13 139.815 1035.65 142.99 1034.93 146.001C1034.14 149.257 1032.49 151.255 1029.65 152.945C1027.13 153.393 1024.13 154.032 1021.67 153.08C1019.42 152.207 1017.61 150.234 1016.68 148.04C1015.24 144.655 1015.39 140.678 1016.81 137.31C1017.83 134.857 1019.09 134.081 1021.44 133.097Z"/><path fill="#E6E5E5" d="M520.849 132.499C522.577 132.419 524.802 132.491 526.432 133.151C528.576 134.019 530.355 136.418 531.185 138.505C532.444 141.643 532.366 145.158 530.97 148.237C529.682 151.026 527.931 152.174 525.189 153.207C523.053 153.423 519.76 153.825 517.819 152.755C515.494 151.475 513.875 149.012 513.207 146.491C512.298 143.058 512.824 139.006 514.685 135.956C516.15 133.556 518.31 133.109 520.849 132.499Z"/><path fill="#E6E5E5" d="M719.632 132.5C721.371 132.498 723.271 132.545 724.871 133.305C727.077 134.353 728.658 136.836 729.377 139.093C730.365 142.193 730.117 145.901 728.573 148.78C726.977 151.753 724.991 152.48 721.953 153.359C719.787 153.409 717.268 153.707 715.35 152.532C713.146 151.181 711.649 148.378 711.097 145.918C710.341 142.548 710.768 138.714 712.7 135.792C714.354 133.29 716.914 133.012 719.632 132.5Z"/></svg>