<?xml version="1.0" encoding="utf-8" ?><svg xmlns="http://www.w3.org/2000/svg" xmlns:xlink="http://www.w3.org/1999/xlink" width="1120" height="390" viewBox="0 0 1120 390"><path fill="#FDFDFB" d="M0 0L1120 0L1120 390L0 390L0 0Z"/><path fill="#121313" d="M60.0209 117.101L226.117 117.092L226.222 293.961L199.187 294.014C199.644 262.568 199.211 230.177 199.245 198.649L199.288 166.461C199.292 160.926 200.477 148.79 196.873 144.723C193.013 140.366 184.979 140.843 180.894 144.732C179.036 146.501 179.243 149.484 178.959 151.889C178.784 166.973 179.008 182.075 179.003 197.167L179.003 294.001L152.475 293.989L152.449 216.332L152.481 171.554C152.49 164.154 152.719 156.751 152.243 149.366C151.603 139.445 133.386 139.096 132.679 148.689C132.278 154.126 132.426 160.026 132.427 165.508L132.432 195.672L132.469 293.961L106.028 294.011C105.666 261.322 106.015 227.917 106.034 195.203L106.041 166.854C106.04 161.325 106.169 155.764 105.781 150.319C105.157 140.919 93.0199 139.328 86.9594 144.73C85.3243 146.187 85.0907 149.098 85.0717 151.184C84.932 166.48 85.0822 181.797 85.0833 197.1L85.0879 293.98L60.0146 294.001C59.3062 235.738 59.8246 175.476 60.0209 117.101Z"/><path fill="#121313" d="M48.5416 65.2349C54.4546 64.7121 64.3598 64.9906 70.4408 64.9922L110.383 65.0115L231.68 64.9936C259.458 65.1004 257.867 78.1121 257.61 101.061L239.258 101.066L30.3261 101.086C30.2056 84.5927 28.0053 68.9621 48.5416 65.2349Z"/><path fill="#121313" d="M36.6348 19.2534C45.9373 18.4944 62.6555 19.0025 72.6917 19.0031L141.462 19.0198L211.343 18.979C223.671 18.9628 236.137 18.7808 248.418 19.1561C260.668 19.5305 271.846 28.1579 274.409 40.276C274.978 42.9684 275.748 44.63 274.219 47.2759C271.03 50.2419 257.633 49.134 252.383 49.0959L81.341 49.1268L39.6951 49.134C34.4671 49.1331 19.982 49.479 15.3461 48.3682C11.1533 44.7923 14.7206 35.5114 17.0635 31.5935C21.4428 24.2701 28.612 21.1506 36.6348 19.2534Z"/><path fill="#121313" d="M42.3867 309.648L180.593 309.68C200.31 309.681 220.032 309.572 239.746 309.665C241.964 309.883 247.036 309.859 247.579 312.643C248.885 319.327 247.616 326.382 248.131 333.204C248.243 334.685 247.321 334.718 246.23 335.001L40.0233 335.04C40 328.745 39.6224 322.321 39.8724 316.044C40.0001 312.839 40.0189 311.766 42.3867 309.648Z"/><path fill="#121313" d="M926.993 130.252L928.877 130.042C929.067 130.232 929.299 130.466 929.575 130.744C930.216 152.394 929.603 174.64 929.727 196.271C929.986 203.244 928.988 211.925 930.652 218.618C931.582 222.36 937.462 221.016 936.358 227.816C935.322 229.686 932.339 230.887 930.337 231.462C922.019 233.849 916.3 235.333 913.394 225.655C901.389 233.967 890.655 236.269 877.457 228.602C874.472 226.428 871.936 223.697 869.987 220.56C859.252 203.646 864.629 178.194 881.957 167.661C892.308 161.37 900.717 161.391 912.06 163.978C912.089 160.175 912.83 148.665 910.935 145.737C909.795 143.975 902.928 142.548 903.171 138.078C904.813 135.616 922.981 131.352 926.993 130.252Z"/><path fill="#FDFDFB" d="M897.554 171.349C902.559 170.802 907.089 171.403 912.012 172.067L912.057 218.247C907.362 220.928 904.076 221.144 898.835 220.67C897.958 220.349 897.09 220.004 896.232 219.635C883.197 213.967 881.115 192.801 886.125 181.337C888.613 175.643 892.048 173.432 897.554 171.349Z"/><path fill="#121313" d="M322.473 132.431L324.566 132.224C328.778 135.324 351.75 212.326 360.845 224.32C363.808 225.454 366.562 225.776 367.425 228.949C366.713 230.413 366.262 231.209 364.433 231.112C359.361 230.842 331.644 232.273 328.537 230.848C327.596 228.973 327.647 229.673 327.912 227.777C329.251 225.806 332.715 224.533 335.064 223.372C334.711 217.284 331.617 208.97 329.642 202.927L316.619 202.933L297.392 202.939C295.288 210.272 293.179 216.046 292.983 223.739C296.154 225.01 299.603 225.57 300.552 229.079L299.652 230.175C295.343 232.175 276.986 231.544 271.731 231.05C270.617 229.607 270.912 230.16 270.922 228.1C271.547 226.979 271.473 226.671 272.761 226.255C281.585 223.409 282.931 216.047 285.641 208.164C287.489 202.788 289.358 197.085 291.212 191.549C297.517 173.008 303.714 154.431 309.802 135.819C313.39 134.666 318.717 133.426 322.473 132.431Z"/><path fill="#FDFDFB" d="M313.537 153.451C314.981 154.505 324.998 188.779 326.298 192.941L312.676 193.008L300.798 192.998C304.14 180.779 309.528 165.728 313.537 153.451Z"/><path fill="#121313" d="M22.1927 351.181C48.4295 350.284 78.8425 351 105.337 351.003L261.946 351.019L261.939 365.973L21.9234 366.004C21.8994 361.081 21.7864 356.083 22.1927 351.181Z"/><path fill="#121313" d="M811.984 162.054C813.284 163 813.613 168.323 813.833 170.085C823.74 164.141 834.561 158.917 846.267 164.157C857.453 169.165 856.506 183.587 856.425 193.898L856.298 211.282C856.282 214.309 856.01 217.449 856.739 220.375C857.762 224.484 864.804 226.204 862.4 230.925C855.74 231.921 847.857 231.23 841.058 231.508C838.133 231.628 834.044 231.391 834.157 227.841C835.001 225.888 837.037 225.023 838.916 223.934C839.154 214.226 840.207 185.487 836.741 178.013C830.293 170.607 822.128 172.874 814.608 177.019L814.667 223.381C816.748 224.753 819.141 225.904 820.259 228.029C820.351 229.929 820.478 229.215 819.494 230.985C816.597 231.575 792.851 231.763 791.03 230.529C790.161 228.781 790.228 229.507 790.713 227.664C792.176 225.751 794.824 224.665 797.02 223.528C796.815 209.149 797.296 194.78 796.933 180.388C796.728 172.257 788.465 173.368 789.405 168.675C792.609 166.601 807.456 163.198 811.984 162.054Z"/><path fill="#121313" d="M390.603 162.028C391.811 163.298 392.035 168.134 392.326 170.324C397.942 166.838 404.567 163.079 411.242 162.371C445.017 158.797 433.8 199.348 435.707 219.695C436.168 224.613 444.462 227.095 441.199 231.097C436.137 231.475 418.102 232.216 414.062 230.348C412.854 228.927 413.085 229.602 413.218 227.67C414.065 225.739 416.137 224.588 417.904 223.345C417.813 211.558 419.172 188.688 415.908 178.658C409.349 170.263 401.029 172.891 392.973 177.219L392.98 208.598C392.964 211.923 392.672 216.87 392.825 220.035C392.981 223.284 398.421 226.03 398.591 230.236L397.883 230.973C393.944 231.601 374.205 231.882 370.874 230.251C368.53 226.774 373.742 224.493 376.372 222.813C376.262 209.486 376.799 192.779 376.09 179.269C375.895 175.571 368.697 171.965 368.088 168.843C370.195 166.919 386.85 163.005 390.603 162.028Z"/><path fill="#121313" d="M654.016 162.587C656.225 162.324 658.477 162.267 660.699 162.265C667.773 162.259 675.399 164.693 680.467 169.784C684.805 174.14 687.733 181.09 687.705 187.26C687.695 189.477 687.168 191.801 685.502 193.374C681.479 197.174 650.087 195.429 643.629 195.424C646.391 219.278 661.419 221.818 681.946 215.063C682.202 215.65 682.419 216.253 682.596 216.868C683.107 218.624 682.987 221.258 681.92 222.704C673.334 234.144 654.116 235.92 642.119 229.227C620.824 217.347 620.544 183.095 639.356 168.892C644.07 165.334 648.408 164.085 654.016 162.587Z"/><path fill="#FDFDFB" d="M658.232 169.694C668.971 170.633 668.581 179.744 667.981 188L654.883 188.031L643.967 188.037C646.214 178.69 648.082 172.02 658.232 169.694Z"/><path fill="#121313" d="M754.401 162.095C786.027 160.989 775.206 196.591 777.851 216.17C778.414 220.338 784.843 222.764 786.141 225.969C785.6 227.859 784.406 229.757 782.654 230.638C772.937 235.526 767.086 232.869 762.045 224.331C750.78 232.595 737.088 238.514 725.819 226.395C719.943 217.008 722.983 206.527 732.608 201.69C741.446 197.249 751.679 194.25 761.093 191.277C760.311 179.795 758.401 169.155 743.738 171.656C738.932 172.476 742.634 180.652 735.279 181.346C729.829 183.147 724.526 174.61 728.274 170.902C732.657 166.565 748.889 162.682 754.401 162.095Z"/><path fill="#FDFDFB" d="M759.8 197.4L760.247 197.503C761.004 198.57 760.837 216.981 760.884 219.425C754.379 221.061 751.204 221.95 744.947 219.559C743.956 218.739 742.864 217.403 742.294 216.268C737.267 206.255 753.33 200.353 759.8 197.4Z"/><path fill="#121313" d="M557.17 162.112C589.546 161.632 577.358 197.372 580.674 217.648C581.261 221.237 588.76 223.241 588.044 226.291C586.718 231.944 579.453 233.611 574.48 232.676C568.9 231.626 567.337 229.004 564.46 224.777C553.571 233.85 539.21 237.531 528.582 225.977C514.969 203.335 548.148 195.71 563.184 191.6C563.122 181.478 562.257 170.161 547.746 171.292C545.692 171.489 544.948 172.664 544.153 174.421C536.46 191.421 526.902 175.551 530.319 171.197C533.417 167.25 551.35 162.7 557.17 162.112Z"/><path fill="#FDFDFB" d="M562.365 197.42L562.574 197.476C563.364 198.327 563.526 216.634 563.665 219.572C557.927 221.03 553.954 221.656 548.279 220.053C534.881 209.324 554.364 201.011 562.365 197.42Z"/><path fill="#121313" d="M1060.91 162.091C1092.84 161.684 1082.01 195.861 1084.47 216.477C1084.96 220.526 1088.84 222.085 1091.79 224.36C1094.28 231.148 1082.61 234.334 1077.45 232.422C1072.05 230.42 1071.6 229.441 1068.89 224.758C1056.9 232.609 1044.54 238.718 1032.66 226.169C1026.19 216.342 1030.28 205.724 1040.36 201.024C1048.96 197.018 1058.31 194.185 1067.34 191.473C1067.17 181.467 1063.73 164.928 1048.29 172.949C1046.51 173.874 1048.2 179.932 1042.53 181.21C1036.12 182.656 1031.36 176.654 1034.89 170.914C1039.17 166.701 1055.5 162.726 1060.91 162.091Z"/><path fill="#FDFDFB" d="M1066.5 197.421L1066.96 197.54C1067.72 198.786 1067.49 216.837 1067.49 219.753C1060.94 221.131 1057.38 221.888 1051.15 219.505C1039.83 208.442 1058.88 200.732 1066.5 197.421Z"/><path fill="#121313" d="M617.857 129.751C619.401 132.473 617.393 210.454 619.405 223.381C621.408 224.654 623.544 225.495 624.361 227.513C623.938 233.83 598.35 231.316 592.581 231.18C591.135 221.656 600.583 228.756 600.755 219.114C601.151 195.833 600.791 172.504 600.884 149.22C600.921 140.105 592.523 143.688 592.774 137.507C594.003 135.574 614.353 130.585 617.857 129.751Z"/><path fill="#121313" d="M463.156 144.955C464.764 144.883 466.659 144.705 467.77 145.665C468.297 150.169 467.956 158.952 467.894 163.801C474.223 163.669 480.555 163.682 486.883 163.84C486.258 167.199 485.564 170.545 484.802 173.876L467.903 173.882C468.06 186.35 467.678 199.172 468.083 211.639C468.137 213.307 468.996 217.61 470.322 218.459C474.653 221.236 483.246 219.41 487.966 218.697C489.016 224.341 489.447 224.984 484.635 228.28C476.124 232.819 463.716 236.691 455.75 228.806C449.422 222.542 450.211 212.154 450.214 203.922C450.218 193.927 450.307 183.871 450.369 173.851C447.344 173.872 445.379 174.538 444.01 171.599C444.12 170.695 444.129 169.119 444.796 168.567C453.679 161.216 458.001 155.468 463.156 144.955Z"/><path fill="#121313" d="M962.192 161.934L963.058 161.941C964.683 163.364 965.138 172.548 965.407 175.225C966.842 173.608 968.306 172.016 969.798 170.451C972.5 167.661 984.452 157.463 990.933 163.986C992.192 165.253 991.538 176.245 991.48 179.091C981.037 184.03 983.978 179.161 975.422 176.882C973.38 176.338 968.518 180.693 966.771 182.496L966.802 222.696C967.692 224.95 973.221 226.733 972.096 230.319C968.993 231.869 945.847 231.573 942.413 230.899C939.097 226.806 945.71 225.543 948.338 223.305C950.503 220.164 948.687 186.17 949.125 180.126C949.772 171.213 941.47 174.06 941.224 168.979C942.395 167.211 959.087 162.836 962.192 161.934Z"/><path fill="#121313" d="M713.225 162.012C713.681 162.192 713.828 162.531 714.186 162.974C715.262 178.804 716.639 216.378 713.821 231.633C712.918 236.496 711.334 241.207 709.115 245.627C706.003 251.803 701.925 256.615 695.19 258.862C692.425 259.784 684.883 260.971 682.575 259.795C681.616 257.963 681.986 257.669 682.125 255.406C683.151 245.874 689.005 250.875 694.445 245.941C697.864 242.841 698.817 229.869 698.712 224.093C698.369 208.693 699.964 192.51 697.526 177.333C696.924 173.587 689.742 174.191 690.517 168.761C692.56 167.436 709.743 162.966 713.225 162.012Z"/><path fill="#121313" d="M1018.96 162.019C1021.9 165.129 1020.37 213.878 1021.12 221.319C1021.29 222.989 1025.42 225.38 1026.76 228.337C1026.71 230.137 1026.9 229.473 1025.86 231.017C1020.49 231.704 1003.44 231.284 997.199 231.257C995.667 225.46 999.328 225.473 1003.33 221.83C1003.2 208.297 1004.08 190.351 1002.31 177.056C1001.94 174.301 996.286 173.068 995.232 169.488C996.628 167.286 1015.13 163.084 1018.96 162.019Z"/><path fill="#121313" d="M514.952 162.071C518.381 168.71 515.024 210.941 517.317 220.694C518.036 223.751 520.137 225.641 521.995 228.088C521.898 230.03 522.231 229.891 521.183 231.012C515.952 231.736 498.765 231.303 492.868 231.14C492.445 229.884 492.521 229.095 492.529 227.779C493.616 225.591 496.632 224.114 498.87 222.636C499.345 210.506 499.208 190.337 498.609 177.696C498.475 174.879 492.096 172.926 491.231 169.277C492.668 167.148 511.378 162.958 514.952 162.071Z"/><path fill="#121313" d="M1008.51 131.95C1023.86 131.005 1027.33 148.534 1013.18 151.962C1004.8 152.447 1001.84 150.083 999.443 142.204C1001.14 136.065 1002.5 134.218 1008.51 131.95Z"/><path fill="#121313" d="M702.317 131.932C716.564 130.275 722.195 146.448 708.266 151.839C703.023 152.333 698.054 151.685 695.375 146.381C694.22 144.064 694.052 141.378 694.909 138.935C696.313 134.864 698.811 133.611 702.317 131.932Z"/><path fill="#121313" d="M504.665 131.989C507.062 131.73 509.619 131.754 511.862 132.713C514.58 133.878 516.704 136.104 517.739 138.875C520.151 145.487 516.002 149.857 510.158 151.955C504.84 152.206 500.042 151.579 497.416 146.104C496.306 143.801 496.182 141.147 497.071 138.751C498.545 134.82 501.168 133.508 504.665 131.989Z"/></svg>